<svg xmlns="http://www.w3.org/2000/svg" data-name="Layer 1" version="1.1" viewBox="0 0 32 32"><path fill="#1d1d1b" stroke-width="0" d="M19.177 11.828h-.004l-4.154.007a1.25 1.25 0 0 0 .002 2.5h.001l1.137-.002-4.272 4.27a1.25 1.25 0 0 0 1.768 1.768l4.276-4.274v1.136a1.25 1.25 0 0 0 1.251 1.248h.001a1.25 1.25 0 0 0 1.248-1.252l-.005-4.152c0-.69-.56-1.248-1.25-1.248ZM8.363 21.525c-1.269.001-2.32 1.024-2.32 2.294s1.022 2.293 2.268 2.294a2.29 2.29 0 0 0 2.294-2.294c-.001-1.269-.997-2.293-2.241-2.294ZM23.811 6.223c-1.27 0-2.32 1.024-2.32 2.294s1.021 2.293 2.268 2.294a2.29 2.29 0 0 0 2.294-2.294c0-1.27-.997-2.293-2.241-2.294Z"/></svg>